<svg class="date-svg" width="14px" height="14px" viewBox="0 0 14 14" version="1.1" xmlns="http://www.w3.org/2000/svg"><g><path d="M1,2 L13,2 C13.552,2 14,2.447 14,3 L14,13 C14,13.552 13.552,14 13,14 L1,14 C0.447,14 6.763e-17,13.552 0,13 L0,3 C-6.763e-17,2.447 0.447,2 1,2 Z M2,5 L2,12 L12,12 L12,5 L2,5 Z" /><rect x="3" y="6" width="2" height="2" /><rect x="6" y="6" width="2" height="2" /><rect x="9" y="6" width="2" height="2" /><rect x="3" y="9" width="2" height="2" /><rect x="6" y="9" width="2" height="2" /><rect x="9" y="9" width="2" height="2" /><rect x="2" y="0" width="2" height="4" rx="1" /><rect x="10" y="0" width="2" height="4" rx="1" /></g></svg>
