<svg class="folder-svg" width="14px" height="14px" viewBox="0 0 14 14" version="1.1" xmlns="http://www.w3.org/2000/svg"><g><path d="M13.53,4.57 C13.53,4.57 12.96,4.57 12.76,4.57 C12.68,4.57 12.69,4.44 12.69,4.44 L12.69,4.05 C12.69,3.55 12.28,3.14 11.77,3.14 L5.50,3.14 C5.46,3.14 5.41,3.05 5.31,2.87 C5.30,2.85 5.29,2.82 5.27,2.79 C4.95,2.19 4.54,2.06 4.25,2.06 L2.61,2.06 C2.20,2.06 1.95,2.30 1.66,2.77 C1.64,2.80 1.63,2.83 1.61,2.87 C1.51,3.02 1.44,3.14 1.39,3.14 L0.91,3.14 C0.41,3.14 0,3.55 0,4.05 L0,11.68 C0,12.13 0.32,12.50 0.74,12.58 C0.80,12.60 0.85,12.61 0.91,12.61 L12.10,12.61 C12.40,12.61 12.70,12.36 12.75,12.07 L13.99,5.11 C14.04,4.81 13.84,4.57 13.53,4.57 Z M0.91,3.87 L1.39,3.87 C1.87,3.87 2.09,3.49 2.24,3.24 C2.26,3.21 2.27,3.18 2.29,3.16 C2.44,2.92 2.55,2.79 2.69,2.79 L4.25,2.79 C4.29,2.79 4.44,2.79 4.62,3.14 C4.64,3.16 4.65,3.18 4.66,3.21 C4.80,3.47 5.00,3.87 5.50,3.87 L11.77,3.87 C11.87,3.87 11.96,3.95 11.96,4.05 L11.96,4.42 C11.96,4.42 11.97,4.57 11.88,4.57 C9.50,4.57 2.34,4.57 2.34,4.57 C2.04,4.57 1.75,4.81 1.70,5.11 L0.78,10.28 C0.78,10.28 0.73,10.45 0.73,10.13 C0.73,8.61 0.73,4.05 0.73,4.05 C0.73,3.95 0.81,3.87 0.91,3.87 Z" /></g></svg>
