<svg class="tag-svg" width="14px" height="14px" viewBox="0 0 14 14" version="1.1" xmlns="http://www.w3.org/2000/svg"><g><path d="M12.684,0 L8.739,0 C8.016,0 7.006,0.418 6.494,0.929 L0.383,7.041 C-0.127,7.552 -0.127,8.389 0.383,8.900 L5.099,13.616 C5.610,14.127 6.447,14.127 6.958,13.616 L13.070,7.505 C13.581,6.993 14.000,5.983 14.000,5.260 L14.000,1.315 C14.000,0.591 13.408,0 12.684,0 Z M10.937,4.375 C10.212,4.375 9.625,3.787 9.625,3.062 C9.625,2.337 10.212,1.750 10.937,1.750 C11.662,1.750 12.250,2.337 12.250,3.062 C12.250,3.787 11.662,4.375 10.937,4.375 Z" /></g></svg>
