<svg class="user-svg" width="14px" height="14px" viewBox="0 0 14 14" version="1.1" xmlns="http://www.w3.org/2000/svg"><g><path d="M6.968,7.380 C8.694,7.380 10.093,5.743 10.093,3.723 C10.093,0.921 8.694,0.065 6.968,0.065 C5.242,0.065 3.843,0.921 3.843,3.723 C3.843,5.743 5.242,7.380 6.968,7.380 Z" /><path d="M13.869,12.764 L12.292,9.212 C12.220,9.050 12.093,8.915 11.936,8.833 L9.489,7.559 C9.435,7.531 9.370,7.537 9.321,7.573 C8.629,8.097 7.815,8.373 6.968,8.373 C6.121,8.373 5.307,8.097 4.615,7.573 C4.566,7.537 4.501,7.531 4.447,7.559 L2.001,8.833 C1.843,8.915 1.716,9.050 1.644,9.212 L0.068,12.764 C-0.040,13.009 -0.018,13.289 0.127,13.513 C0.273,13.738 0.520,13.872 0.788,13.872 L13.148,13.872 C13.416,13.872 13.663,13.738 13.809,13.513 C13.955,13.289 13.977,13.008 13.869,12.764 Z" /></g></svg>
