<svg width="40px" height="36px" viewBox="0 0 40 36" version="1.1" xmlns="http://www.w3.org/2000/svg">
    <defs>
        <linearGradient x1="100%" y1="35%" x2="18%" y2="65%" id="cartGradient">
            <stop stop-color="#B3DA77" offset="0%"/>
            <stop stop-color="#7CB342" offset="100%"/>
        </linearGradient>
    </defs>
    <g class="svg-cart-group">
        <path d="M39.6,6.2 C39.8,6.5 39.9,6.9 39.9,7.2 L37.1,19.9 C36.8,21.3 35.6,22.2 34.2,22.2 L14.2,22.2 L9.8,5.8 L38.7,5.8 C39.0,5.8 39.4,6.0 39.6,6.2 Z M31.7,17.6 C32.3,17.6 32.8,17.0 32.8,16.4 L32.8,11.7 C32.8,11.0 32.3,10.5 31.7,10.5 C31.0,10.5 30.5,11.0 30.5,11.7 L30.5,16.4 C30.5,17.0 31.0,17.6 31.7,17.6 Z M24.6,17.6 C25.3,17.6 25.8,17.0 25.8,16.4 L25.8,11.7 C25.8,11.0 25.3,10.5 24.6,10.5 C24.0,10.5 23.4,11.0 23.4,11.7 L23.4,16.4 C23.4,17.0 24.0,17.6 24.6,17.6 Z M17.6,17.6 C18.2,17.6 18.7,17.0 18.7,16.4 L18.7,11.7 C18.7,11.0 18.2,10.5 17.6,10.5 C16.9,10.5 16.4,11.0 16.4,11.7 L16.4,16.4 C16.4,17.0 16.9,17.6 17.6,17.6 Z" class="basket" fill="url(#cartGradient)" fill-rule="nonzero"/>
        <g class="structure">
            <circle class="wheel-1" fill="#556080" fill-rule="nonzero" cx="17.6" cy="32.5" r="3.5"/>
            <circle class="wheel-2" fill="#556080" fill-rule="nonzero" cx="31.7" cy="32.5" r="3.5"/>
            <path d="M34.6,27.0 L15.2,27.0 C14.7,27.0 14.2,26.6 14.1,26.1 L8.0,3.5 L3.5,3.5 C2.8,3.5 2.3,2.9 2.3,2.3 C2.3,1.7 2.8,1.1 3.5,1.1 L8.9,1.1 C9.5,1.1 9.9,1.5 10.1,2.0 L16.1,24.6 L34.6,24.6 C35.2,24.6 35.8,25.1 35.8,25.8 C35.8,26.4 35.2,27.0 34.6,27.0 Z" class="frame" fill="#556080" fill-rule="nonzero"/>
            <circle class="handle" fill="#7CB342" cx="2.3" cy="2.3" r="2.3"/>
        </g>
    </g>
</svg>
